<svg viewBox="0 0 64 64" xml:space="preserve" xmlns="http://www.w3.org/2000/svg" enable-background="new 0 0 64 64"><path d="M46.877 55.811c-1.988-.88-2.807-1.699-3.687-3.687a.206.206 0 0 0-.378 0c-.88 1.988-1.699 2.807-3.687 3.687a.206.206 0 0 0 0 .378c1.988.88 2.807 1.699 3.687 3.687a.206.206 0 0 0 .378 0c.88-1.988 1.699-2.807 3.687-3.687a.207.207 0 0 0 0-.378zM4.124 21.189c1.988.88 2.807 1.699 3.687 3.687a.206.206 0 0 0 .378 0c.88-1.988 1.699-2.807 3.687-3.687a.206.206 0 0 0 0-.378c-1.988-.88-2.807-1.699-3.687-3.687a.206.206 0 0 0-.378 0c-.88 1.988-1.699 2.807-3.687 3.687a.206.206 0 0 0 0 .378zM58 37a4 4 0 0 0 4-4V18h-8v15a4 4 0 0 0 4 4zM20 62c9.941 0 18-8.059 18-18s-8.059-18-18-18S2 34.059 2 44s8.059 18 18 18zm-9.293-15.707 5.247 5.247L30.25 35.338l1.5 1.323-15 17a1.003 1.003 0 0 1-.719.338H16a.997.997 0 0 1-.707-.293l-6-6 1.414-1.413z" fill="#ebf5ee" class="fill-000000"></path><path d="M38.014 38H57l-.027-.108A5.007 5.007 0 0 1 53 33V2H26v23.986A19.07 19.07 0 0 1 38.014 38zM49 33H38v-2h11v2zm0-6H35v-2h14v2zM41 7h8v2h-8V7zm0 6h8v2h-8v-2zM30 7h8v8h-8V7zm0 12h19v2H30v-2z" fill="#ebf5ee" class="fill-000000"></path></svg>