<svg viewBox="0 0 128 128" xml:space="preserve" xmlns="http://www.w3.org/2000/svg"><path d="M127.744 46.594a4.004 4.004 0 0 0-5.152-2.34L94.655 54.731 79.847 2.902A4.005 4.005 0 0 0 75.999 0H52a4.005 4.005 0 0 0-3.848 2.902L33.344 54.731 5.406 44.254a4.006 4.006 0 0 0-5.152 2.34 4.005 4.005 0 0 0 2.34 5.152l30.421 11.408 27.32 62.447a3.998 3.998 0 0 0 7.328 0l27.32-62.447 30.421-11.408a4.005 4.005 0 0 0 2.34-5.152zM55.015 8h17.968l13.712 48H41.303L55.015 8zm8.984 106.016L42.117 64h43.765l-21.883 50.016z" fill="#ebf5ee" class="fill-81d4fa"></path><path d="m95.999 8 23.999 40-55.999 72L8 48 32 8h63.999m0-8H32a7.997 7.997 0 0 0-6.859 3.883l-24 40a8.002 8.002 0 0 0 .543 9.027l55.999 72a8.003 8.003 0 0 0 12.632 0l55.999-72a8.002 8.002 0 0 0 .543-9.027l-23.999-40A7.997 7.997 0 0 0 95.999 0z" fill="#ebf5ee" class="fill-03a9f4"></path></svg>