<svg viewBox="0 0 32 32" xml:space="preserve" xmlns="http://www.w3.org/2000/svg" enable-background="new 0 0 32 32"><g id="Layer_1"><circle cx="16" cy="21" r="9" fill="none" stroke="#ebf5ee" stroke-width="2" stroke-linecap="round" stroke-linejoin="round" stroke-miterlimit="10" class="stroke-434345"></circle><path d="M5 26H1V8h30v18h-4M1 2h30v6H1zM5 5h0M9 5h0M13 5h0" fill="none" stroke="#ebf5ee" stroke-width="2" stroke-linecap="round" stroke-linejoin="round" stroke-miterlimit="10" class="stroke-434345"></path><path d="M18 17.8h-2.4a1.6 1.6 0 0 0-1.6 1.6v0a1.6 1.6 0 0 0 1.6 1.6h.8a1.6 1.6 0 0 1 1.6 1.6v0a1.6 1.6 0 0 1-1.6 1.6H14M16 17.8v-1.837M16 26.037V24.2" fill="none" stroke="#ebf5ee" stroke-width="2" stroke-linecap="round" stroke-linejoin="round" stroke-miterlimit="10" class="stroke-434345"></path></g></svg>